<svg width="1600" height="900" viewBox="0 0 1600 900" fill="none" xmlns="http://www.w3.org/2000/svg">
  <!-- Dark gradient background -->
  <rect width="1600" height="900" fill="url(#gradient)"/>
  
  <!-- Gradient definition -->
  <defs>
    <linearGradient id="gradient" x1="0" y1="0" x2="1600" y2="900" gradientUnits="userSpaceOnUse">
      <stop offset="0%" stop-color="#0f172a"/>
      <stop offset="100%" stop-color="#1e293b"/>
    </linearGradient>
  </defs>
  
  <!-- Grid pattern -->
  <g opacity="0.1">
    <line x1="0" y1="150" x2="1600" y2="150" stroke="#94a3b8" stroke-width="1"/>
    <line x1="0" y1="300" x2="1600" y2="300" stroke="#94a3b8" stroke-width="1"/>
    <line x1="0" y1="450" x2="1600" y2="450" stroke="#94a3b8" stroke-width="1"/>
    <line x1="0" y1="600" x2="1600" y2="600" stroke="#94a3b8" stroke-width="1"/>
    <line x1="0" y1="750" x2="1600" y2="750" stroke="#94a3b8" stroke-width="1"/>
    <line x1="200" y1="0" x2="200" y2="900" stroke="#94a3b8" stroke-width="1"/>
    <line x1="400" y1="0" x2="400" y2="900" stroke="#94a3b8" stroke-width="1"/>
    <line x1="600" y1="0" x2="600" y2="900" stroke="#94a3b8" stroke-width="1"/>
    <line x1="800" y1="0" x2="800" y2="900" stroke="#94a3b8" stroke-width="1"/>
    <line x1="1000" y1="0" x2="1000" y2="900" stroke="#94a3b8" stroke-width="1"/>
    <line x1="1200" y1="0" x2="1200" y2="900" stroke="#94a3b8" stroke-width="1"/>
    <line x1="1400" y1="0" x2="1400" y2="900" stroke="#94a3b8" stroke-width="1"/>
  </g>
  
  <!-- Center icon -->
  <g transform="translate(750, 400)">
    <circle cx="50" cy="50" r="40" fill="#334155" opacity="0.5"/>
    <path d="M30 50 L50 30 L70 50 L50 70 Z" fill="#64748b" opacity="0.7"/>
  </g>
  
  <!-- Text -->
  <text x="800" y="520" font-family="system-ui, -apple-system, sans-serif" font-size="24" fill="#64748b" text-anchor="middle" opacity="0.5">
    No image yet
  </text>
</svg>
